# AST/ASF file generated using VICON BodyLanguage
# -----------------------------------------------
:version 1.10
:name VICON
:units
  mass 1.0
  length 0.45
  angle deg
:documentation
   .ast/.asf automatically generated from VICON data using
   VICON BodyBuilder and BodyLanguage model FoxedUp or BRILLIANT.MOD
:root
   order TX TY TZ RX RY RZ
   axis XYZ
   position 0 0 0  
   orientation 0 0 0 
:bonedata
  begin
     id 1 
     name lhipjoint
     direction 0.440178 -0.822639 0.359871 
     length 2.53113 
     axis 0 0 0  XYZ
  end
  begin
     id 2 
     name lfemur
     direction 0.34202 -0.939693 0  
     length 7.88132  
     axis 0 0 20  XYZ
    dof rx ry rz
    limits (-160.0 20.0)
           (-70.0 70.0)
           (-60.0 70.0)
  end
  begin
     id 3 
     name ltibia
     direction 0.34202 -0.939693 0   
     length 8.43783   
     axis 0 0 20   XYZ
    dof rx
    limits (-10.0 170.0)
  end
  begin
     id 4 
     name lfoot
     direction 0.0886351 -0.243523 0.965837   
     length 2.63414   
     axis -90 7.62852e-016 20   XYZ
    dof rx rz
    limits (-45.0 90.0)
           (-70.0 20.0)
  end
  begin
     id 5 
     name ltoes
     direction 1.53703e-011 -4.21717e-011 1   
     length 1.31427   
     axis -90 7.62852e-016 20   XYZ
    dof rx
    limits (-90.0 20.0)
  end
  begin
     id 6 
     name rhipjoint
     direction -0.399779 -0.839773 0.367367   
     length 2.47948  
     axis 0 0 0  XYZ 
  end
  begin
     id 7 
     name rfemur
     direction -0.34202 -0.939693 0   
     length 7.74806   
     axis 0 0 -20   XYZ
    dof rx ry rz
    limits (-160.0 20.0)
           (-70.0 70.0)
           (-70.0 60.0)
  end
  begin
     id 8 
     name rtibia
     direction -0.34202 -0.939693 0   
     length 8.74432   
     axis 0 0 -20   XYZ
    dof rx
    limits (-10.0 170.0)
 end
 begin
     id 9 
     name rfoot
     direction -0.108514 -0.298139 0.948334   
     length 2.66102  
     axis -90 -7.62852e-016 -20   XYZ
    dof rx rz
    limits (-45.0 90.0)
           (-20.0 70.0)
  end
  begin
     id 10 
     name rtoes
     direction -1.53392e-011 -4.22077e-011 1   
     length 1.31983   
     axis -90 -7.62852e-016 -20   XYZ
    dof rx
    limits (-90.0 20.0)
  end
  begin
     id 11 
     name lowerback
     direction 0.0113257 0.999866 0.0118602   
     length 2.58694   
     axis 0 0 0   XYZ
    dof rx ry rz
    limits (-20.0 45.0)
           (-30.0 30.0)
           (-30.0 30.0)
  end
  begin
     id 12 
     name upperback
     direction -0.0164747 0.995193 -0.0965375   
     length 2.52368   
     axis 0 0 0   XYZ
    dof rx ry rz
    limits (-20.0 45.0)
           (-30.0 30.0)
           (-30.0 30.0)
  end
  begin
     id 13 
     name thorax
     direction -0.0194301 0.99433 -0.104552   
     length 2.56099   
     axis 0 0 0   XYZ
    dof rx ry rz
    limits (-20.0 45.0)
           (-30.0 30.0)
           (-30.0 30.0)
  end
  begin
     id 14 
     name lowerneck
     direction 0.0148543 0.995587 -0.092657   
     length 1.71582   
     axis 0 0 0   XYZ
    dof rx ry rz
    limits (-20.0 45.0)
           (-30.0 30.0)
           (-30.0 30.0)
  end
  begin
     id 15 
     name upperneck
     direction -0.0135467 0.993656 -0.111639   
     length 1.68937   
     axis 0 0 0   XYZ
    dof rx ry rz
    limits (-20.0 45.0)
           (-30.0 30.0)
           (-30.0 30.0)
  end
  begin
     id 16
     name head
     direction -0.00615349 0.999547 -0.029448  
     length 1.7462  
     axis 0 0 0   XYZ
    dof rx ry rz
    limits (-20.0 45.0)
           (-30.0 30.0)
           (-30.0 30.0)
  end
  begin
     id 17 
     name lclavicle
     direction 0.988267 0.149885 0.0293713  
     length 4.47222  
     axis 0 0 0   XYZ
    dof ry rz
    limits (-20.0 10.0)
           (0.0 20.0)
  end
  begin
     id 18 
     name lhumerus
     direction 1 -4.48986e-011 -1.14833e-027   
     length 5.37148   
     axis 180 -30 -90   XYZ
    dof rx ry rz
    limits (-60.0 90.0)
           (-90.0 90.0)
           (-90.0 90.0)
  end
  begin
     id 19
     name lradius
     direction 0.999998 0.00170963 -0.000987055   
     length 3.94212   
     axis 180 -30 -90   XYZ
    dof rx
    limits (-10.0 170.0)
  end
  begin
     id 20
     name lwrist
     direction 0.999998 7.53149e-005 -0.00194706   
     length 1.97106   
     axis 4.65056e-015 90 90   XYZ
    dof ry
    limits (-180.0 0.0)
 end
  begin
     id 21 
     name lhand
     direction 1 -4.48973e-011 -1.31746e-026   
     length 1.17917   
     axis 8.4065e-015 90 90   XYZ
    dof rx rz
    limits (-90.0 90.0)
           (-45.0 45.0)
  end
  begin
     id 22 
     name lfingers
     direction 1 -4.49107e-011 -2.63492e-026   
     length 0.950679   
     axis 1.6813e-014 90 90   XYZ
    dof rx
    limits (0.0 90.0)
  end
  begin
     id 23
     name lthumb
     direction 0.707107 -6.35048e-011 0.707107   
     length 1.36499   
     axis -90 45 2.85299e-015   XYZ
    dof rx rz
    limits (-45.0 45.0)
           (-45.0 45.0)
  end
  begin
     id 24 
     name rclavicle
     direction -0.996699 0.0642895 -0.0495725   
     length 4.62611  
     axis 0 0 0   XYZ 
    dof ry rz
    limits (-10.0 20.0)
           (-20.0 0.0)
  end
  begin
     id 25 
     name rhumerus
     direction -1 -4.48919e-011 -2.41059e-027  
     length 5.4981   
     axis 180 30 90   XYZ
    dof rx ry rz
    limits (-90.0 60.0)
           (-90.0 90.0)
           (-90.0 90.0)
  end
  begin
     id 26 
     name rradius
     direction -0.999999 0.00118101 -0.000681858   
     length 3.48381   
     axis 180 30 90   XYZ
    dof rx
    limits (-10.0 170.0)
  end
  begin
     id 27 
     name rwrist
     direction -0.999999 0.000321823 -0.00132288   
     length 1.7419   
     axis 4.65056e-015 -90 -90   XYZ
    dof ry
    limits (-180.0 0.0)
  end
  begin
     id 28
     name rhand
     direction -1 -4.49022e-011 -1.31746e-026   
     length 1.34932   
     axis 8.4065e-015 -90 -90   XYZ
    dof rx rz
    limits (-90.0 90.0)
           (-45.0 45.0)
  end
  begin
     id 29
     name rfingers
     direction -1 -4.49178e-011 -2.63492e-026   
     length 1.08785   
     axis 1.6813e-014 -90 -90   XYZ
    dof rx
    limits (0.0 90.0)
  end
  begin
     id 30
     name rthumb
     direction -0.707107 -6.34713e-011 0.707107   
     length 1.56195   
     axis -90 -45 -2.85299e-015   XYZ
    dof rx rz
    limits (-45.0 45.0)
           (-45.0 45.0)
  end
:hierarchy
  begin
    root lhipjoint rhipjoint lowerback
    lhipjoint lfemur
    lfemur ltibia
    ltibia lfoot
    lfoot ltoes
    rhipjoint rfemur
    rfemur rtibia
    rtibia rfoot
    rfoot rtoes
    lowerback upperback
    upperback thorax
    thorax lowerneck lclavicle rclavicle
    lowerneck upperneck
    upperneck head
    lclavicle lhumerus
    lhumerus lradius
    lradius lwrist
    lwrist lhand lthumb
    lhand lfingers
    rclavicle rhumerus
    rhumerus rradius
    rradius rwrist
    rwrist rhand rthumb
    rhand rfingers
  end

#!OML:ASF X:\für Bonn\!DataBase\2005_08_10_Bjorn_Final\c3d\bjorn.ASF
:FULLY-SPECIFIED
:DEGREES
16
root 0.387181 18.5727 8.74053 -184.946 9.74872 179.017
lowerback -5.17656 -1.63439 2.37746
upperback 12.1299 -1.30006 -0.668792
thorax 16.3661 0.23042 -2.18789
lowerneck -8.69486 2.4122 6.29762
upperneck 9.52381 3.62085 -9.30078
head 4.55572 1.54221 -3.66967
rclavicle -2.14687e-014 -1.98785e-015
rhumerus -374.262 -3.94228 265.172
rradius 39.0543
rwrist 5.89698
rhand -22.8801 14.812
rfingers 7.12502
rthumb 3.55885 -15.138
lclavicle -2.14687e-014 -1.98785e-015
lhumerus -14.7852 -29.167 97.3696
lradius 26.5276
lwrist 0.371527
lhand -23.4703 -10.1222
lfingers 7.12502
lthumb 2.98892 19.8366
rfemur -19.6396 -1.60729 11.12
rtibia 40.17
rfoot -14.1593 14.2836
rtoes -13.6989
lfemur 10.0521 -6.46738 -13.013
ltibia 21.5378
lfoot -20.4764 -4.69942
ltoes -16.0495
17
root 0.449364 18.5767 8.70434 -185.031 9.44273 179.114
lowerback -5.19243 -1.69237 2.59862
upperback 12.0977 -1.42739 -0.579579
thorax 16.325 0.187784 -2.23491
lowerneck -8.73393 2.42825 6.26188
upperneck 9.44927 3.64662 -9.35298
head 4.54218 1.55083 -3.67764
rclavicle 2.31087e-014 5.96354e-016
rhumerus -373.658 -2.93587 265.028
rradius 38.8151
rwrist 5.79503
rhand -22.8879 14.7627
rfingers 7.12502
rthumb 3.55136 -15.1875
lclavicle 2.31087e-014 5.96354e-016
lhumerus -14.3528 -28.917 97.378
lradius 26.0237
lwrist 0.964671
lhand -23.3691 -9.5957
lfingers 7.12502
lthumb 3.08666 20.3617
rfemur -19.2947 -1.68861 11.37
rtibia 40.198
rfoot -14.3643 14.1964
rtoes -13.3245
lfemur 10.1122 -6.86511 -12.8846
ltibia 21.8681
lfoot -20.2459 -4.19638
ltoes -16.9337
18
root 0.510051 18.5842 8.66716 -185.138 9.13653 179.199
lowerback -5.21727 -1.76501 2.79884
upperback 12.087 -1.56848 -0.486561
thorax 16.3166 0.138546 -2.26833
lowerneck -8.778 2.44648 6.19726
upperneck 9.34324 3.67796 -9.41495
head 4.5201 1.56101 -3.68328
rclavicle -5.56597e-015 -3.57812e-015
rhumerus -373.013 -1.86498 264.925
rradius 38.6257
rwrist 5.69042
rhand -22.859 14.6774
rfingers 7.12502
rthumb 3.57927 -15.2723
lclavicle -5.56597e-015 -3.57812e-015
lhumerus -13.8298 -28.52 97.3785
lradius 25.4781
lwrist 1.48523
lhand -23.316 -9.0968
lfingers 7.12502
lthumb 3.13794 20.8599
rfemur -18.8897 -1.70959 11.6007
rtibia 40.1462
rfoot -14.5055 14.1271
rtoes -12.6082
lfemur 10.1317 -7.24811 -12.7802
ltibia 22.2991
lfoot -20.0087 -3.73378
ltoes -17.5522
19
root 0.569762 18.5956 8.63044 -185.164 8.83944 179.357
lowerback -5.31916 -1.80836 3.10115
upperback 12.0566 -1.69144 -0.395417
thorax 16.3327 0.10872 -2.35982
lowerneck -8.82628 2.45471 6.21138
upperneck 9.25216 3.68746 -9.49492
head 4.50317 1.56173 -3.70929
rclavicle -1.2921e-014 1.27222e-014
rhumerus -372.37 -0.777808 264.824
rradius 38.5447
rwrist 5.63096
rhand -22.811 14.3868
rfingers 7.12502
rthumb 3.62558 -15.5621
lclavicle -1.2921e-014 1.27222e-014
lhumerus -13.2981 -28.2256 97.3476
lradius 24.9609
lwrist 2.0615
lhand -23.1786 -8.56529
lfingers 7.12502
lthumb 3.27058 21.3894
rfemur -18.5232 -1.66989 11.9278
rtibia 40.0218
rfoot -14.6695 13.9769
rtoes -12.042
lfemur 10.0167 -7.59117 -12.5872
ltibia 22.8251
lfoot -19.7493 -3.24538
ltoes -18.2299
20
root 0.628368 18.6094 8.59388 -185.213 8.5378 179.506
lowerback -5.40009 -1.86683 3.37543
upperback 12.0349 -1.82959 -0.295451
thorax 16.3452 0.0687473 -2.42788
lowerneck -8.84937 2.4737 6.17833
upperneck 9.1306 3.71614 -9.56569
head 4.47337 1.57206 -3.72322
rclavicle 7.15625e-015 -5.96354e-016
rhumerus -371.693 0.419645 264.773
rradius 38.5325
rwrist 5.68259
rhand -22.6934 13.871
rfingers 7.12502
rthumb 3.73915 -16.0759
lclavicle 7.15625e-015 -5.96354e-016
lhumerus -12.6996 -27.9009 97.3217
lradius 24.4314
lwrist 2.62656
lhand -23.0655 -7.98502
lfingers 7.12502
lthumb 3.37985 21.9679
rfemur -18.0948 -1.62253 12.2458
rtibia 39.8352
rfoot -14.8348 13.7893
rtoes -11.6257
lfemur 9.85927 -7.9094 -12.4099
ltibia 23.459
lfoot -19.4972 -2.77243
ltoes -19.0109
21
root 0.685419 18.626 8.55689 -185.242 8.25485 179.651
lowerback -5.50913 -1.91271 3.64932
upperback 12.0072 -1.95333 -0.198428
thorax 16.3695 0.0352853 -2.49735
lowerneck -8.9016 2.48316 6.12557
upperneck 9.03427 3.73244 -9.61403
head 4.45438 1.57584 -3.72762
rclavicle 7.35503e-015 -7.35503e-015
rhumerus -370.98 1.54779 264.729
rradius 38.4991
rwrist 5.81922
rhand -22.6497 13.4451
rfingers 7.12502
rthumb 3.78141 -16.5011
lclavicle 7.35503e-015 -7.35503e-015
lhumerus -12.0718 -27.6578 97.2698
lradius 23.947
lwrist 3.26308
lhand -22.8096 -7.50285
lfingers 7.12502
lthumb 3.62699 22.446
rfemur -17.6686 -1.54672 12.5675
rtibia 39.6104
rfoot -15.0264 13.5585
rtoes -11.3743
lfemur 9.63117 -8.22102 -12.253
ltibia 24.1918
lfoot -19.2493 -2.26003
ltoes -19.6626
22
root 0.741885 18.6433 8.52078 -185.291 7.97074 179.775
lowerback -5.59934 -1.95459 3.90231
upperback 11.9719 -2.06637 -0.120987
thorax 16.3719 0.004916 -2.57493
lowerneck -8.90781 2.49908 6.09506
upperneck 8.94371 3.75309 -9.63456
head 4.42956 1.58488 -3.72706
rclavicle 5.36719e-015 0
rhumerus -370.275 2.65531 264.676
rradius 38.5179
rwrist 6.0073
rhand -22.7489 13.1745
rfingers 7.12502
rthumb 3.6856 -16.7734
lclavicle 5.36719e-015 0
lhumerus -11.4123 -27.5507 97.185
lradius 23.492
lwrist 4.01497
lhand -22.7274 -7.40624
lfingers 7.12502
lthumb 3.70637 22.5413
rfemur -17.2144 -1.49826 12.863
rtibia 39.3569
rfoot -15.1835 13.331
rtoes -11.1928
lfemur 9.34288 -8.44074 -12.1006
ltibia 25.0382
lfoot -18.9814 -1.72033
ltoes -20.8798
23
root 0.797729 18.6592 8.48524 -185.364 7.67545 179.847
lowerback -5.69266 -2.00009 4.0727
upperback 11.9536 -2.17001 -0.0447469
thorax 16.4006 -0.0288082 -2.60597
lowerneck -8.97623 2.51306 6.06249
upperneck 8.90646 3.77598 -9.67368
head 4.43193 1.59211 -3.73159
rclavicle 4.87022e-015 1.27222e-014
rhumerus -369.484 3.77865 264.663
rradius 38.5009
rwrist 6.1749
rhand -23.016 13.1688
rfingers 7.12502
rthumb 3.42761 -16.7834
lclavicle 4.87022e-015 1.27222e-014
lhumerus -10.7308 -27.577 97.0927
lradius 23.1394
lwrist 4.85877
lhand -22.6614 -7.21991
lfingers 7.12502
lthumb 3.77008 22.7265
rfemur -16.746 -1.4436 13.0996
rtibia 39.1045
rfoot -15.3617 13.0829
rtoes -11.0282
lfemur 9.02091 -8.60829 -11.9939
ltibia 25.9721
lfoot -18.6996 -1.19922
ltoes -22.0728
